<?xml version="1.0" encoding="UTF-8" standalone="no"?>
<!-- Created with Inkscape (http://www.inkscape.org/) -->

<svg
   version="1.1"
   id="svg1"
   width="442.39926"
   height="233.59068"
   viewBox="0 0 442.39926 233.59068"
   xmlns="http://www.w3.org/2000/svg"
   xmlns:svg="http://www.w3.org/2000/svg">
  <defs
     id="defs1">
    <marker
       style="overflow:visible"
       id="marker52"
       refX="0"
       refY="0"
       orient="auto-start-reverse"
       markerWidth="1"
       markerHeight="1"
       viewBox="0 0 1 1"
       preserveAspectRatio="xMidYMid">
      <path
         style="fill:none;stroke:context-stroke;stroke-width:1;stroke-linecap:butt"
         d="M 3,-3 0,0 3,3"
         transform="rotate(180,0.125,0)"
         id="path52" />
    </marker>
    <marker
       style="overflow:visible"
       id="marker46"
       refX="0"
       refY="0"
       orient="auto-start-reverse"
       markerWidth="1"
       markerHeight="1"
       viewBox="0 0 1 1"
       preserveAspectRatio="xMidYMid">
      <path
         style="fill:none;stroke:context-stroke;stroke-width:1;stroke-linecap:butt"
         d="M 3,-3 0,0 3,3"
         transform="rotate(180,0.125,0)"
         id="path46" />
    </marker>
    <marker
       style="overflow:visible"
       id="ArrowWide"
       refX="0"
       refY="0"
       orient="auto-start-reverse"
       markerWidth="1"
       markerHeight="1"
       viewBox="0 0 1 1"
       preserveAspectRatio="xMidYMid">
      <path
         style="fill:none;stroke:context-stroke;stroke-width:1;stroke-linecap:butt"
         d="M 3,-3 0,0 3,3"
         transform="rotate(180,0.125,0)"
         id="path45" />
    </marker>
    <marker
       style="overflow:visible"
       id="marker52-9"
       refX="0"
       refY="0"
       orient="auto-start-reverse"
       markerWidth="1"
       markerHeight="1"
       viewBox="0 0 1 1"
       preserveAspectRatio="xMidYMid">
      <path
         style="fill:none;stroke:context-stroke;stroke-width:1;stroke-linecap:butt"
         d="M 3,-3 0,0 3,3"
         transform="rotate(180,0.125,0)"
         id="path52-2" />
    </marker>
    <marker
       style="overflow:visible"
       id="marker52-4"
       refX="0"
       refY="0"
       orient="auto-start-reverse"
       markerWidth="1"
       markerHeight="1"
       viewBox="0 0 1 1"
       preserveAspectRatio="xMidYMid">
      <path
         style="fill:none;stroke:context-stroke;stroke-width:1;stroke-linecap:butt"
         d="M 3,-3 0,0 3,3"
         transform="rotate(180,0.125,0)"
         id="path52-9" />
    </marker>
    <marker
       style="overflow:visible"
       id="marker52-6"
       refX="0"
       refY="0"
       orient="auto-start-reverse"
       markerWidth="1"
       markerHeight="1"
       viewBox="0 0 1 1"
       preserveAspectRatio="xMidYMid">
      <path
         style="fill:none;stroke:context-stroke;stroke-width:1;stroke-linecap:butt"
         d="M 3,-3 0,0 3,3"
         transform="rotate(180,0.125,0)"
         id="path52-1" />
    </marker>
  </defs>
  <g
     id="g1"
     style="display:inline"
     transform="translate(-23.786453,-36.638326)">
    <path
       id="path29"
       d="m 158.7095,2.12115 -0.34326,5.03545 -0.34326,2.7385 -0.34326,2.13086 -0.34326,1.80524 -0.34328,1.59696 -0.34326,1.44606 -0.34326,1.33048 -0.34326,1.24087 -0.34327,1.16545 -0.34327,1.10349 -0.34326,1.0502 -0.34327,1.00349 -0.34326,0.96303 -0.34326,0.92699 -0.34326,0.89416 -0.34326,0.86544 -0.34327,0.83911 -0.34326,0.81456 -0.34326,0.7924 -0.34326,0.77236 -0.34328,0.7526 -0.34326,0.73462 -0.34326,0.71873 -0.34326,0.70452 -0.34327,0.68825 -0.34327,0.67546 -0.34325,0.66264 -0.34326,0.6509 -0.34326,0.63841 -0.34328,0.62874 -0.34326,0.61732 -0.34326,0.60833 -0.34327,0.59829 -0.34326,0.5893 -0.34326,0.58133 -0.34326,0.57303 -0.34326,0.56439 -0.34328,0.55779 -0.34326,0.55018 -0.34326,0.54224 -0.34325,0.53669 -0.34326,0.52874 -0.34328,0.52389 -0.34326,0.51767 -0.34326,0.51213 -0.34328,0.50591 -0.34326,0.50001 -0.34326,0.49585 -0.34326,0.48999 -0.34326,0.48547 -0.34327,0.48064 -0.34326,0.47545 -0.34326,0.4706 -0.34328,0.46784 -0.34326,0.46195 -0.34324,0.45746 -0.34326,0.45537 -0.34327,0.44984 -0.34328,0.44603 -0.34325,0.44328 -0.34327,0.43807 -0.34328,0.43567 -0.34325,0.43219 -0.34327,0.42804 -0.34326,0.42561 -0.34326,0.42215 -0.34326,0.41872 -0.34327,0.41522 -0.34326,0.41283 -0.34324,0.40934 -0.34328,0.40694 -0.34326,0.40312 -0.34326,0.40107 -0.34327,0.39826 -0.34327,0.3969 -0.34326,0.39241 -0.34327,0.39067 -0.34326,0.38721 -0.34328,0.38582 -0.34326,0.38305 -0.34326,0.38063 -0.34326,0.37789 -0.34326,0.37646 -0.34326,0.37372 -0.34325,0.37131 -0.34326,0.3692 -0.34328,0.36716 -0.34326,0.3654 -0.34326,0.36262 -0.34326,0.36129 -0.34328,0.35847 -0.34326,0.35745 -0.34326,0.35434 -0.34327,0.35364 -0.34327,0.35158 -0.34326,0.34913 -0.34327,0.34847 -0.34326,0.34499 -0.34324,0.34498 -67.816608,-0.07204 0.337705,-67.99127781 101.311503,-0.11256834 z"
       style="display:inline;fill:#ffb8b8;fill-opacity:1;stroke:none;stroke-width:0.79701;stroke-linecap:butt;stroke-linejoin:miter;stroke-miterlimit:10;stroke-dasharray:none;stroke-opacity:1"
       transform="matrix(1.3333333,0,0,-1.3333333,57.701333,255.11067)" />
    <path
       id="path28"
       d="m 158.71158,1.18652 -1.03049,5.75173 -1.03049,2.80218 -1.03047,2.15958 -1.03047,1.82393 -1.0305,1.60906 -1.03049,1.45437 -1.03047,1.33879 -1.03049,1.2464 -1.03047,1.17062 -1.03049,1.10765 -1.03048,1.05368 -1.03047,1.00729 -1.0305,0.96578 -1.03048,0.92943 -1.03047,0.89656 -1.0305,0.86753 -1.03048,0.84084 -1.03048,0.81664 -1.03047,0.79414 -1.03049,0.77338 -1.03049,0.75435 -1.03049,0.73705 -1.03047,0.72044 -1.03048,0.70418 -1.03048,0.69033 -1.03048,0.67649 -1.03051,0.66404 -1.03047,0.65123 -1.03047,0.64014 -1.03049,0.62909 -1.03048,0.61836 -1.03049,0.60869 -1.03047,0.59932 -1.03047,0.59032 -1.03051,0.58167 -1.03047,0.57372 -1.03049,0.56543 -1.0305,0.55814 -1.03045,0.55089 -1.03049,0.54327 -1.03048,0.5367 -1.0305,0.53047 -1.03048,0.52425 -1.03046,0.51799 -1.03049,0.51248 -1.03048,0.50659 -1.03049,0.50104 -1.03049,0.49553 -1.03047,0.49102 -1.03049,0.48548 -1.03048,0.48098 -1.03047,0.47614 -1.0305,0.47165 -1.03046,0.46747 -1.03049,0.463 -1.03049,0.45849 -1.03048,0.45502 -1.03049,0.45019 -1.03049,0.44675 -1.03046,0.4429 -1.0305,0.43947 -1.03047,0.436 -1.03049,0.43219 -1.03048,0.42873 -1.03048,0.42563 -1.03048,0.42215 -1.03049,0.4194 -1.03049,0.41628 -1.03048,0.41247 -1.03046,0.41004 -1.03049,0.4066 -1.0305,0.40485 -1.03047,0.40104 -1.03049,0.3983 -1.03049,0.39655 -1.03047,0.39273 -1.03048,0.39067 -1.03048,0.38859 -1.0305,0.38549 -1.03047,0.3834 -1.03047,0.38099 -1.03049,0.3782 -1.0305,0.3765 -1.03047,0.37439 -1.03048,0.37129 -1.03047,0.36956 -1.0305,0.36783 -1.03049,0.36507 -1.03047,0.36333 -1.03049,0.36091 -1.03048,0.35988 -1.03047,0.3571 -1.03049,0.35537 -1.03049,0.35331 -1.03047,0.35192 -1.03049,0.34983 -1.03047,0.34777 -1.0305,0.34602 -1.03047,0.34466 -45.149039,0.263911 -0.67541,-68.10384613 147.914799,-0.5628417 z"
       style="display:inline;fill:#ffd9b3;fill-opacity:1;stroke:none;stroke-width:0.79725;stroke-linecap:butt;stroke-linejoin:miter;stroke-miterlimit:10;stroke-dasharray:none;stroke-opacity:1"
       transform="matrix(1.3333333,0,0,-1.3333333,57.701333,255.11067)" />
    <path
       id="path27"
       d="m 113.3565,1.18652 -1.03048,5.75173 -1.03047,2.80218 -1.03049,2.15958 -1.03047,1.82393 -1.0305,1.60906 -1.03049,1.45437 -1.03046,1.33879 -1.03048,1.2464 -1.03049,1.17062 -1.03049,1.10765 -1.03048,1.05368 -1.03048,1.00729 -1.03048,0.96578 -1.03049,0.92943 -1.03047,0.89656 -1.03051,0.86753 -1.03045,0.84084 -1.03049,0.81664 -1.03049,0.79414 -1.03048,0.77338 -1.03049,0.75435 -1.03049,0.73705 -1.03045,0.72044 -1.03051,0.70418 -1.03047,0.69033 -1.03049,0.67649 -1.03048,0.66404 -1.03048,0.65123 -1.03048,0.64014 -1.03049,0.62909 -1.03049,0.61836 -1.03048,0.60869 -1.03046,0.59932 -1.03049,0.59032 -1.0305,0.58167 -1.03047,0.57372 -1.03049,0.56543 -1.03048,0.55814 -1.03047,0.55089 -1.0305,0.54327 -1.03046,0.5367 -1.03051,0.53047 -1.03047,0.52425 -1.03047,0.51799 -1.03049,0.51248 -1.03048,0.50659 -1.03049,0.50104 -1.03047,0.49553 -1.03048,0.49102 -1.0305,0.48548 -1.03048,0.48098 -1.03048,0.47614 -1.03048,0.47165 -1.03048,0.46747 -1.03048,0.463 -1.03049,0.45849 -1.03049,0.45502 -1.03047,0.45019 -1.03049,0.44675 -1.03047,0.4429 -1.0305,0.43947 -1.03047,0.436 -1.03049,0.43219 -1.03049,0.42873 -1.03047,0.42563 -1.03048,0.42215 -1.03049,0.4194 -1.03048,0.41628 -1.03048,0.41247 -1.03047,0.41004 -1.03049,0.4066 -1.0305,0.40485 -1.03047,0.40104 -1.03048,0.3983 -1.0305,0.39655 -1.03047,0.39273 -1.03049,0.39067 -1.03047,0.38859 -1.03048,0.38549 -1.03049,0.3834 -1.03047,0.38099 -1.03049,0.3782 -1.0305,0.3765 -1.03046,0.37439 -1.03049,0.37129 -1.03047,0.36956 -1.0305,0.36783 -1.03049,0.36507 -1.03045,0.36333 -1.03051,0.36091 -1.03048,0.35988 -1.03048,0.3571 -1.03048,0.35537 -1.03047,0.35331 -1.03049,0.35192 -1.03049,0.34983 -1.03047,0.34777 -1.0305,0.34602 -1.03046,0.34466 -11.38851802,-0.186362 V -0.14574015 L 113.19399,-0.03317181 Z"
       style="display:inline;fill:#d9d9d9;fill-opacity:1;stroke:none;stroke-width:0.79701;stroke-linecap:butt;stroke-linejoin:miter;stroke-miterlimit:10;stroke-dasharray:none;stroke-opacity:1"
       transform="matrix(1.3333333,0,0,-1.3333333,57.701333,255.11067)" />
    <path
       id="path24"
       d="m 254.22238,179.84311 0.1526,0.37552 0.15262,0.37893 0.15259,0.37855 0.15263,0.38193 0.1526,0.38194 0.15261,0.38498 0.15262,0.38838 0.15258,0.38801 0.15263,0.39328 0.15259,0.39292 0.15262,0.3948 0.15262,0.39971 0.1526,0.39935 0.1526,0.40276 0.1526,0.40614 0.15261,0.40729 0.15261,0.41069 0.15262,0.41106 0.15262,0.41524 0.15259,0.41749 0.15262,0.42015 0.1526,0.42355 0.15259,0.42545 0.15262,0.42845 0.15261,0.433 0.15262,0.43338 0.1526,0.4379 0.15259,0.43982 0.15262,0.44283 0.15262,0.44586 0.15261,0.45078 0.15262,0.45266 0.1526,0.45721 0.15262,0.45908 0.15259,0.46516 0.15263,0.46512 0.15259,0.47198 0.15262,0.47496 0.15261,0.47801 0.15259,0.48291 0.15262,0.48633 0.1526,0.49086 0.15259,0.49426 0.15263,0.50069 0.15262,0.50373 0.1526,0.50862 0.1526,0.51356 0.15261,0.51807 0.1526,0.52303 0.1526,0.52943 0.15262,0.53282 0.15262,0.54078 0.1526,0.54531 0.15262,0.55064 0.15259,0.55815 0.15261,0.56346 0.15261,0.57104 0.15262,0.57595 0.15261,0.58427 0.15262,0.59184 0.15261,0.59863 0.15259,0.60808 0.15262,0.61454 0.1526,0.62245 0.15262,0.63228 0.15262,0.64327 0.15259,0.65009 0.15261,0.66253 0.15261,0.67238 0.15259,0.68336 0.15261,0.69469 0.15262,0.70754 0.15262,0.72041 0.1526,0.73516 0.15259,0.74914 0.15262,0.7654 0.1526,0.78282 0.15261,0.79753 0.15262,0.81837 0.15259,0.83764 0.15262,0.86298 0.1526,0.88263 0.15262,0.91139 0.15259,0.9371 0.15263,0.97225 0.1526,1.00291 0.15261,1.04449 0.15261,1.08609 0.15261,1.13451 0.15261,1.19387 0.15262,1.25626 0.1526,1.33985 0.15263,1.42947 0.15259,1.55314 0.15262,1.70401 0.1526,1.9192 0.15259,2.23799 0.15262,2.81429 0.15262,4.42379"
       style="display:inline;fill:none;stroke:#009900;stroke-width:0.906399;stroke-linecap:butt;stroke-linejoin:miter;stroke-miterlimit:10;stroke-dasharray:0.906399, 0.906399;stroke-dashoffset:0;stroke-opacity:1" />
    <path
       id="path23"
       d="m 124.72643,68.03015 0.34324,-0.34498 0.34326,-0.34499 0.34327,-0.34847 0.34326,-0.34913 0.34327,-0.35158 0.34327,-0.35364 0.34326,-0.35434 0.34326,-0.35745 0.34328,-0.35847 0.34326,-0.36129 0.34326,-0.36262 0.34326,-0.3654 0.34328,-0.36716 0.34326,-0.3692 0.34325,-0.37131 0.34326,-0.37372 0.34326,-0.37646 0.34326,-0.37789 0.34326,-0.38063 0.34326,-0.38305 0.34328,-0.38582 0.34326,-0.38721 0.34327,-0.39067 0.34326,-0.39241 0.34327,-0.3969 0.34327,-0.39826 0.34326,-0.40107 0.34326,-0.40312 0.34328,-0.40694 0.34324,-0.40934 0.34326,-0.41283 0.34327,-0.41522 0.34326,-0.41872 0.34326,-0.42215 0.34326,-0.42561 0.34327,-0.42804 0.34325,-0.43219 0.34328,-0.43567 0.34327,-0.43807 0.34325,-0.44328 0.34328,-0.44603 0.34327,-0.44984 0.34326,-0.45537 0.34324,-0.45746 0.34326,-0.46195 0.34328,-0.46784 0.34326,-0.4706 0.34326,-0.47545 0.34327,-0.48064 0.34326,-0.48547 0.34326,-0.48999 0.34326,-0.49585 0.34326,-0.50001 0.34328,-0.50591 0.34326,-0.51213 0.34326,-0.51767 0.34328,-0.52389 0.34326,-0.52874 0.34325,-0.53669 0.34326,-0.54224 0.34326,-0.55018 0.34328,-0.55779 0.34326,-0.56439 0.34326,-0.57303 0.34326,-0.58133 0.34326,-0.5893 0.34327,-0.59829 0.34326,-0.60833 0.34326,-0.61732 0.34328,-0.62874 0.34326,-0.63841 0.34326,-0.6509 0.34325,-0.66264 0.34327,-0.67546 0.34327,-0.68825 0.34326,-0.70452 0.34326,-0.71873 0.34326,-0.73462 0.34328,-0.7526 0.34326,-0.77236 0.34326,-0.7924 0.34326,-0.81456 0.34327,-0.83911 0.34326,-0.86544 0.34326,-0.89416 0.34326,-0.92699 0.34326,-0.96303 0.34327,-1.00349 0.34326,-1.0502 0.34327,-1.10349 0.34327,-1.16545 0.34326,-1.24087 0.34326,-1.33048 0.34326,-1.44606 0.34328,-1.59696 0.34326,-1.80524 0.34326,-2.13086 0.34326,-2.7385 0.34326,-5.03545"
       style="display:inline;fill:none;stroke:#e60000;stroke-width:1.2;stroke-linecap:butt;stroke-linejoin:miter;stroke-miterlimit:10;stroke-dasharray:none;stroke-opacity:1"
       transform="matrix(1.3333333,0,0,-1.3333333,57.701333,255.11067)" />
    <path
       id="path21-9"
       d="m 72.819679,164.40147 1.373947,0.45955 1.374,0.46136 1.37396,0.46369 1.373986,0.46644 1.373987,0.46923 1.37396,0.47108 1.373973,0.47383 1.373974,0.47613 1.373973,0.47984 1.374013,0.48121 1.373934,0.48444 1.373986,0.48676 1.374,0.49044 1.37396,0.49275 1.373987,0.49505 1.373946,0.49919 1.374,0.502 1.373987,0.50427 1.37396,0.50798 1.373988,0.5112 1.37397,0.51399 1.37396,0.51812 1.37399,0.52089 1.37396,0.52364 1.374,0.52874 1.37397,0.53106 1.37396,0.53472 1.374,0.5398 1.37399,0.54214 1.37396,0.54672 1.37397,0.54996 1.37397,0.55504 1.37399,0.5592 1.37397,0.56286 1.37396,0.56751 1.37399,0.57164 1.37399,0.57625 1.37396,0.58134 1.374,0.58596 1.37396,0.59053 1.37398,0.59567 1.37396,0.60025 1.37399,0.60669 1.37399,0.61132 1.37397,0.61734 1.37397,0.62329 1.37398,0.62886 1.37397,0.63486 1.37397,0.6413 1.374,0.64731 1.37398,0.65469 1.37396,0.66071 1.37398,0.66805 1.37398,0.67546 1.37398,0.6833 1.37396,0.69066 1.37396,0.699 1.37402,0.70729 1.37394,0.7156 1.374,0.72436 1.37396,0.73452 1.37398,0.74419 1.37398,0.7539 1.37396,0.76496 1.374,0.77556 1.37399,0.7871 1.37395,0.79909 1.37397,0.81159 1.37399,0.82448 1.37398,0.83878 1.37398,0.85352 1.37397,0.86831 1.37397,0.88539 1.37399,0.90198 1.37396,0.92044 1.37401,0.93891 1.37394,0.96059 1.37398,0.98273 1.37399,1.0058 1.37397,1.03117 1.37399,1.05886 1.37399,1.08885 1.37393,1.12112 1.37401,1.15671 1.37396,1.19541 1.37399,1.23924 1.37397,1.28771 1.37398,1.34305 1.37397,1.40491 1.37399,1.47686 1.37398,1.56083 1.37398,1.66187 1.37394,1.78505 1.37399,1.93916 1.374,2.14541 1.37396,2.43191 1.37399,2.87944 1.37396,3.73624 1.37397,7.66897"
       style="display:inline;fill:none;stroke:#000000;stroke-width:1.6;stroke-linecap:butt;stroke-linejoin:miter;stroke-miterlimit:10;stroke-dasharray:none;stroke-opacity:1" />
    <path
       id="path22"
       d="m 56.69382,68.0319 1.03047,-0.34466 1.0305,-0.34602 1.03047,-0.34777 1.03049,-0.34983 1.03047,-0.35192 1.03049,-0.35331 1.03049,-0.35537 1.03047,-0.3571 1.03048,-0.35988 1.03049,-0.36091 1.03047,-0.36333 1.03049,-0.36507 1.0305,-0.36783 1.03047,-0.36956 1.03048,-0.37129 1.03047,-0.37439 1.0305,-0.3765 1.03049,-0.3782 1.03047,-0.38099 1.03047,-0.3834 1.0305,-0.38549 1.03048,-0.38859 1.03048,-0.39067 1.03047,-0.39273 1.03049,-0.39655 1.03049,-0.3983 1.03047,-0.40104 1.0305,-0.40485 1.03049,-0.4066 1.03046,-0.41004 1.03048,-0.41247 1.03049,-0.41628 1.03049,-0.4194 1.03048,-0.42215 1.03048,-0.42563 1.03048,-0.42873 1.03049,-0.43219 1.03047,-0.436 1.0305,-0.43947 1.03046,-0.4429 1.03049,-0.44675 1.03049,-0.45019 1.03048,-0.45502 1.03049,-0.45849 1.03049,-0.463 1.03046,-0.46747 1.0305,-0.47165 1.03047,-0.47614 1.03048,-0.48098 1.03049,-0.48548 1.03047,-0.49102 1.03049,-0.49553 1.03049,-0.50104 1.03048,-0.50659 1.03049,-0.51248 1.03046,-0.51799 1.03048,-0.52425 1.0305,-0.53047 1.03048,-0.5367 1.03049,-0.54327 1.03045,-0.55089 1.0305,-0.55814 1.03049,-0.56543 1.03047,-0.57372 1.03051,-0.58167 1.03047,-0.59032 1.03047,-0.59932 1.03049,-0.60869 1.03048,-0.61836 1.03049,-0.62909 1.03047,-0.64014 1.03047,-0.65123 1.03051,-0.66404 1.03048,-0.67649 1.03048,-0.69033 1.03048,-0.70418 1.03047,-0.72044 1.03049,-0.73705 1.03049,-0.75435 1.03049,-0.77338 1.03047,-0.79414 1.03048,-0.81664 1.03048,-0.84084 1.0305,-0.86753 1.03047,-0.89656 1.03048,-0.92943 1.0305,-0.96578 1.03047,-1.00729 1.03048,-1.05368 1.03049,-1.10765 1.03047,-1.17062 1.03049,-1.2464 1.03047,-1.33879 1.03049,-1.45437 1.0305,-1.60906 1.03047,-1.82393 1.03047,-2.15958 1.03049,-2.80218 1.03049,-5.75173"
       style="display:inline;fill:none;fill-opacity:1;stroke:#ff8c00;stroke-width:1.2;stroke-linecap:butt;stroke-linejoin:miter;stroke-miterlimit:10;stroke-dasharray:none;stroke-opacity:1"
       transform="matrix(1.3333333,0,0,-1.3333333,57.701333,255.11067)" />
    <path
       id="path1"
       d="M 57.701333,73.241348 V 36.957402 H 360.06843 v 36.283946 z"
       style="fill:#e6e6e6;fill-opacity:1;fill-rule:nonzero;stroke:none;stroke-width:1.33333" />
    <path
       id="path2"
       d="M 57.701333,73.453609 H 360.06843"
       style="fill:none;stroke:#000000;stroke-width:1.06268;stroke-linecap:butt;stroke-linejoin:miter;stroke-miterlimit:10;stroke-dasharray:none;stroke-opacity:1" />
    <path
       id="path3"
       d="M 57.701333,37.169663 H 360.06843"
       style="fill:none;stroke:#000000;stroke-width:1.06268;stroke-linecap:butt;stroke-linejoin:miter;stroke-miterlimit:10;stroke-dasharray:none;stroke-opacity:1" />
    <path
       id="path4"
       d="M 72.820453,65.894075 V 44.727343 h 45.357437 v 21.166732 z"
       style="fill:#ffffff;fill-opacity:1;fill-rule:nonzero;stroke:#000000;stroke-width:1.06268;stroke-linecap:butt;stroke-linejoin:miter;stroke-miterlimit:10;stroke-dasharray:none;stroke-opacity:1" />
    <path
       id="path5"
       d="M 90.963879,60.808956 V 49.812009 l 10.884671,5.49848 z"
       style="fill:#000000;fill-opacity:1;fill-rule:nonzero;stroke:#000000;stroke-width:1.06268;stroke-linecap:butt;stroke-linejoin:miter;stroke-miterlimit:10;stroke-dasharray:none;stroke-opacity:1" />
    <path
       id="path6"
       d="m 299.59502,71.185969 v -4.53532 h 30.23672 v 4.53532 z"
       style="fill:#cccccc;fill-opacity:1;fill-rule:nonzero;stroke:#000000;stroke-width:1.06268;stroke-linecap:butt;stroke-linejoin:miter;stroke-miterlimit:10;stroke-dasharray:none;stroke-opacity:1" />
    <path
       id="path7"
       d="m 299.59502,62.114862 v -4.53532 h 30.23672 v 4.53532 z"
       style="fill:#cccccc;fill-opacity:1;fill-rule:nonzero;stroke:#000000;stroke-width:1.06268;stroke-linecap:butt;stroke-linejoin:miter;stroke-miterlimit:10;stroke-dasharray:none;stroke-opacity:1" />
    <path
       id="path8"
       d="m 299.59502,53.043742 v -4.535279 h 30.23672 v 4.535279 z"
       style="fill:#cccccc;fill-opacity:1;fill-rule:nonzero;stroke:#000000;stroke-width:1.06268;stroke-linecap:butt;stroke-linejoin:miter;stroke-miterlimit:10;stroke-dasharray:none;stroke-opacity:1" />
    <path
       id="path9"
       d="m 299.59502,43.972676 v -4.53532 h 30.23672 v 4.53532 z"
       style="fill:#cccccc;fill-opacity:1;fill-rule:nonzero;stroke:#000000;stroke-width:1.06268;stroke-linecap:butt;stroke-linejoin:miter;stroke-miterlimit:10;stroke-dasharray:none;stroke-opacity:1" />
    <path
       id="path10"
       d="M 113.38766,-6.8033 V 163.66831"
       style="fill:none;stroke:#000000;stroke-width:0.79701;stroke-linecap:butt;stroke-linejoin:miter;stroke-miterlimit:10;stroke-dasharray:2.98883, 2.98883;stroke-dashoffset:0;stroke-opacity:1"
       transform="matrix(1.3333333,0,0,-1.3333333,57.701333,255.11067)" />
    <path
       id="path11"
       d="M 158.74274,-6.8033 V 163.50911"
       style="fill:none;stroke:#000000;stroke-width:0.79701;stroke-linecap:butt;stroke-linejoin:miter;stroke-miterlimit:10;stroke-dasharray:2.98883, 2.98883;stroke-dashoffset:0;stroke-opacity:1"
       transform="matrix(1.3333333,0,0,-1.3333333,57.701333,255.11067)" />
    <path
       id="path12"
       d="m -11.33876,0 h 211.3262"
       style="fill:none;stroke:#000000;stroke-width:0.79701;stroke-linecap:butt;stroke-linejoin:miter;stroke-miterlimit:10;stroke-dasharray:none;stroke-opacity:1"
       transform="matrix(1.3333333,0,0,-1.3333333,57.701333,255.11067)" />
    <path
       id="path13"
       d="M 5.44046,0 1.28699,1.5706 2.66432,0 1.28699,-1.5706 Z"
       style="fill:#000000;fill-opacity:1;fill-rule:nonzero;stroke:#000000;stroke-width:0.79701;stroke-linecap:butt;stroke-linejoin:miter;stroke-miterlimit:10;stroke-dasharray:none;stroke-opacity:1"
       transform="matrix(1.3333333,0,0,-1.3333333,321.06449,255.11067)" />
    <g
       id="g17"
       aria-label="v[m/s]"
       transform="matrix(1.3333333,0,0,1.3333333,11.069333,148.564)">
      <path
         id="path18"
         d="m 28.754422,-5.1676384 c 0,-0.5390625 -0.257813,-0.703125 -0.445313,-0.703125 -0.246094,0 -0.480469,0.2578125 -0.480469,0.4804688 0,0.1289062 0.04687,0.1875 0.152344,0.3046875 0.210938,0.1992187 0.339844,0.4570312 0.339844,0.8085937 0,0.421875 -0.609375,2.7070312 -1.769531,2.7070312 -0.503907,0 -0.738282,-0.3515625 -0.738282,-0.8671875 0,-0.5624999 0.269532,-1.2890624 0.574219,-2.1210937 0.07031,-0.1640625 0.128906,-0.3046875 0.128906,-0.4921875 0,-0.4453125 -0.328125,-0.8203125 -0.820312,-0.8203125 -0.9375,0 -1.3125,1.453125 -1.3125,1.5351563 0,0.1054687 0.09375,0.1054687 0.117188,0.1054687 0.09375,0 0.105468,-0.023437 0.152343,-0.1875 0.292969,-0.9960937 0.726563,-1.2304687 1.007813,-1.2304687 0.08203,0 0.257812,0 0.257812,0.3164062 0,0.2460938 -0.105469,0.515625 -0.175781,0.703125 -0.433594,1.1484375 -0.5625,1.6054688 -0.5625,2.0390625 0,1.078125 0.867187,1.2304687 1.335937,1.2304687 1.664063,0 2.238282,-3.2929687 2.238282,-3.8085937 z m 0,0"
         style="fill:#000000;fill-opacity:1;fill-rule:nonzero;stroke:none" />
    </g>
    <path
       id="path16"
       d="M 0,-11.33876 V 75.26099"
       style="fill:none;stroke:#000000;stroke-width:0.79701;stroke-linecap:butt;stroke-linejoin:miter;stroke-miterlimit:10;stroke-dasharray:none;stroke-opacity:1"
       transform="matrix(1.3333333,0,0,-1.3333333,57.701333,255.11067)" />
    <path
       id="path17"
       d="M 5.44046,0 1.28699,1.5706 2.66432,0 1.28699,-1.5706 Z"
       style="fill:#000000;fill-opacity:1;fill-rule:nonzero;stroke:#000000;stroke-width:0.79701;stroke-linecap:butt;stroke-linejoin:miter;stroke-miterlimit:10;stroke-dasharray:none;stroke-opacity:1"
       transform="matrix(0,-1.3333333,-1.3333333,0,57.701333,158.04945)" />
    <g
       id="g13"
       aria-label="d[m]"
       transform="matrix(1.3333333,0,0,1.3333333,327.228,270.032)">
      <path
         id="path14"
         d="m 5.1434531,-6.8091563 c 0,0 0,-0.1054687 -0.1289062,-0.1054687 -0.1523438,0 -1.1015625,0.09375 -1.265625,0.1054687 -0.082031,0.011719 -0.140625,0.070312 -0.140625,0.1992188 0,0.1171875 0.082031,0.1171875 0.234375,0.1171875 0.4804687,0 0.5039062,0.070312 0.5039062,0.1640625 l -0.035156,0.1992187 -0.5976563,2.3671875 c -0.1757812,-0.375 -0.46875,-0.6445312 -0.9140625,-0.6445312 -1.171875,0 -2.40234372,1.4648437 -2.40234372,2.9179687 0,0.93750005 0.55078125,1.59375005 1.32421872,1.59375005 0.1992188,0 0.703125,-0.03515625 1.3007813,-0.73828125 0.070312,0.41015625 0.421875,0.73828125 0.9023437,0.73828125 0.3515625,0 0.5742188,-0.22265625 0.7382813,-0.5390625 C 4.8270469,-0.7974375 4.9559531,-1.4068125 4.9559531,-1.43025 c 0,-0.09375 -0.082031,-0.09375 -0.1171875,-0.09375 -0.09375,0 -0.1054687,0.035156 -0.140625,0.1757812 -0.1640625,0.6445313 -0.3515625,1.24218755 -0.75,1.24218755 -0.2695312,0 -0.3046875,-0.2578125 -0.3046875,-0.45703125 0,-0.24609375 0.023437,-0.31640625 0.058594,-0.4804688 z m -2.0742187,5.625 c -0.046875,0.1757813 -0.046875,0.1992188 -0.1992188,0.3632813 -0.4453125,0.55078125 -0.84375,0.71484375 -1.125,0.71484375 -0.5039062,0 -0.6445312,-0.55078125 -0.6445312,-0.93750005 0,-0.5039062 0.328125,-1.7226562 0.5507812,-2.1796875 0.3046875,-0.5976562 0.7617188,-0.9609375 1.1601563,-0.9609375 0.6445312,0 0.7851562,0.8203125 0.7851562,0.8789063 0,0.058594 -0.023437,0.1171875 -0.035156,0.1640625 z m 0,0"
         style="fill:#000000;fill-opacity:1;fill-rule:nonzero;stroke:none" />
    </g>
    <text
       xml:space="preserve"
       style="font-size:10.6667px;font-family:Sans;-inkscape-font-specification:Sans;text-align:start;writing-mode:lr-tb;direction:ltr;text-anchor:start;fill:#ff0202;fill-opacity:1;stroke:none;stroke-width:1;stroke-linecap:butt;stroke-linejoin:miter;stroke-dasharray:none;stroke-dashoffset:0;stroke-opacity:1"
       x="276.13824"
       y="144.76193"
       id="text49"><tspan
         id="tspan49"
         x="276.13824"
         y="144.76193"
         style="font-size:10.6667px;fill:#ff0202;fill-opacity:1">no_stop_decision.min_acc</tspan></text>
    <text
       xml:space="preserve"
       style="font-size:10.6667px;font-family:Sans;-inkscape-font-specification:Sans;text-align:start;writing-mode:lr-tb;direction:ltr;text-anchor:start;display:inline;fill:#009a00;fill-opacity:1;stroke:none;stroke-width:1;stroke-linecap:butt;stroke-linejoin:miter;stroke-dasharray:none;stroke-dashoffset:0;stroke-opacity:1"
       x="276.10178"
       y="201.90045"
       id="text49-2"><tspan
         id="tspan49-7"
         x="276.10178"
         y="201.90045"
         style="font-size:10.6667px;fill:#009a00;fill-opacity:1">if enable_no_stop_decision=true</tspan></text>
    <path
       style="fill:#ff0202;fill-opacity:1;stroke:#ff0000;stroke-width:1;stroke-linecap:butt;stroke-linejoin:bevel;stroke-miterlimit:3.1;stroke-dasharray:none;stroke-dashoffset:0;stroke-opacity:1;marker-end:url(#marker52);paint-order:normal"
       d="m 277.63725,147.52132 -43.93801,26.53261"
       id="path49" />
    <path
       style="display:inline;fill:#009900;fill-opacity:1;stroke:#009900;stroke-width:1;stroke-linecap:butt;stroke-linejoin:bevel;stroke-miterlimit:3.1;stroke-dasharray:none;stroke-dashoffset:0;stroke-opacity:1;marker-end:url(#marker52-6);paint-order:normal"
       d="M 291.06845,193.33767 284.2761,181.23879"
       id="path49-1" />
    <path
       style="display:inline;fill:#ff0202;fill-opacity:1;stroke:#000000;stroke-width:1;stroke-linecap:butt;stroke-linejoin:bevel;stroke-miterlimit:3.1;stroke-dasharray:none;stroke-dashoffset:0;stroke-opacity:1;marker-end:url(#marker52-4);paint-order:normal"
       d="M 106.07122,124.9567 86.755468,167.40888"
       id="path49-4" />
    <text
       xml:space="preserve"
       style="font-size:10.6667px;font-family:Sans;-inkscape-font-specification:Sans;text-align:start;writing-mode:lr-tb;direction:ltr;text-anchor:start;display:inline;fill:#ff8002;fill-opacity:1;stroke:none;stroke-width:1;stroke-linecap:butt;stroke-linejoin:miter;stroke-dasharray:none;stroke-dashoffset:0;stroke-opacity:1"
       x="23.208326"
       y="118.81218"
       id="text49-8"><tspan
         id="tspan49-9"
         x="23.208326"
         y="118.81218"
         style="font-size:10.6667px;fill:#ff8002;fill-opacity:1">stop_position.min_acc_preferred</tspan></text>
    <path
       style="display:inline;fill:#ff8002;fill-opacity:1;stroke:#ff8000;stroke-width:1;stroke-linecap:butt;stroke-linejoin:bevel;stroke-miterlimit:3.1;stroke-dasharray:none;stroke-dashoffset:0;stroke-opacity:1;marker-end:url(#marker52-9);paint-order:normal"
       d="m 111.93339,124.96775 21.22609,38.41922"
       id="path49-2" />
  </g>
  <g
     id="layer1"
     transform="translate(-23.786453,-36.638326)">
    <path
       id="path31"
       d="m 115.29309,164.40147 1.37396,0.45955 1.374,0.46136 1.37396,0.46369 1.37399,0.46644 1.37396,0.46923 1.37398,0.47108 1.37399,0.47383 1.37396,0.47613 1.37397,0.47984 1.37399,0.48121 1.37396,0.48444 1.37399,0.48676 1.374,0.49044 1.37396,0.49275 1.37397,0.49505 1.37396,0.49919 1.374,0.502 1.37399,0.50427 1.37396,0.50798 1.37396,0.5112 1.374,0.51399 1.37397,0.51812 1.37397,0.52089 1.37396,0.52364 1.37399,0.52874 1.37399,0.53106 1.37396,0.53472 1.374,0.5398 1.37398,0.54214 1.37395,0.54672 1.37397,0.54996 1.37399,0.55504 1.37399,0.5592 1.37397,0.56286 1.37397,0.56751 1.37398,0.57164 1.37398,0.57625 1.37396,0.58134 1.374,0.58596 1.37395,0.59053 1.37399,0.59567 1.37398,0.60025 1.37398,0.60669 1.37398,0.61132 1.37399,0.61734 1.37395,0.62329 1.374,0.62886 1.37396,0.63486 1.37397,0.6413 1.37399,0.64731 1.37396,0.65469 1.37398,0.66071 1.37399,0.66805 1.37397,0.67546 1.37399,0.6833 1.37395,0.69066 1.37397,0.699 1.374,0.70729 1.37397,0.7156 1.37399,0.72436 1.37393,0.73452 1.374,0.74419 1.37399,0.7539 1.37396,0.76496 1.37401,0.77556 1.37396,0.7871 1.37396,0.79909 1.37399,0.81159 1.37397,0.82448 1.37399,0.83878 1.37396,0.85352 1.37396,0.86831 1.37401,0.88539 1.37398,0.90198 1.37397,0.92044 1.37397,0.93891 1.37396,0.96059 1.37399,0.98273 1.37399,1.0058 1.37398,1.03117 1.37396,1.05886 1.37397,1.08885 1.37398,1.12112 1.374,1.15671 1.37396,1.19541 1.37397,1.23924 1.374,1.28771 1.37396,1.34305 1.37397,1.40491 1.37399,1.47686 1.37396,1.56083 1.37399,1.66187 1.37396,1.78505 1.37398,1.93916 1.374,2.14541 1.37396,2.43191 1.37396,2.87944 1.37399,3.73624 1.37399,7.66897"
       style="display:inline;fill:none;stroke:#ff8c00;stroke-width:1;stroke-linecap:butt;stroke-linejoin:miter;stroke-miterlimit:10;stroke-dasharray:none;stroke-opacity:1" />
    <path
       id="path30"
       d="m 135.38226,182.1723 1.37398,0.57164 1.37398,0.57625 1.37396,0.58134 1.374,0.58596 1.37395,0.59053 1.37399,0.59567 1.37398,0.60025 1.37398,0.60669 1.37398,0.61132 1.37399,0.61734 1.37395,0.62329 1.374,0.62886 1.37396,0.63486 1.37397,0.6413 1.37399,0.64731 1.37396,0.65469 1.37398,0.66071 1.37399,0.66805 1.37397,0.67546 1.37399,0.6833 1.37395,0.69066 1.37397,0.699 1.374,0.70729 1.37397,0.7156 1.37399,0.72436 1.37393,0.73452 1.374,0.74419 1.37399,0.7539 1.37396,0.76496 1.37401,0.77556 1.37396,0.7871 1.37396,0.79909 1.37399,0.81159 1.37397,0.82448 1.37399,0.83878 1.37396,0.85352 1.37396,0.86831 1.37401,0.88539 1.37398,0.90198 1.37397,0.92044 1.37397,0.93891 1.37396,0.96059 1.37399,0.98273 1.37399,1.0058 1.37398,1.03117 1.37396,1.05886 1.37397,1.08885 1.37398,1.12112 1.374,1.15671 1.37396,1.19541 1.37397,1.23924 1.374,1.28771 1.37396,1.34305 1.37397,1.40491 1.37399,1.47686 1.37396,1.56083 1.37399,1.66187 1.37396,1.78505 1.37398,1.93916 1.374,2.14541 1.37396,2.43191 1.37396,2.87944 1.37399,3.73624 1.37399,7.66897"
       style="display:inline;fill:none;stroke:#ff8c00;stroke-width:1;stroke-linecap:butt;stroke-linejoin:miter;stroke-miterlimit:10;stroke-dasharray:none;stroke-opacity:1" />
    <path
       id="path32"
       d="m 205.43328,164.48537 0.64251,0.45911 0.64254,0.45913 0.64257,0.46377 0.64254,0.46463 0.64257,0.4679 0.64256,0.47064 0.64255,0.47158 0.64255,0.47571 0.64258,0.47707 0.64255,0.48083 0.64254,0.48258 0.64255,0.4863 0.64258,0.48863 0.64255,0.49135 0.64252,0.49417 0.64255,0.49735 0.64254,0.50102 0.64255,0.50291 0.64255,0.50656 0.64255,0.50978 0.64258,0.51347 0.64255,0.51532 0.64256,0.51993 0.64255,0.52224 0.64256,0.52821 0.64256,0.53002 0.64255,0.53377 0.64254,0.53649 0.64259,0.54158 0.64251,0.54477 0.64255,0.54941 0.64256,0.5526 0.64255,0.55725 0.64254,0.56181 0.64255,0.56643 0.64256,0.56966 0.64253,0.57517 0.64258,0.57982 0.64257,0.583 0.64252,0.58994 0.64259,0.5936 0.64257,0.59867 0.64254,0.60602 0.64251,0.60881 0.64255,0.61479 0.64258,0.62263 0.64254,0.62629 0.64255,0.63276 0.64256,0.63966 0.64255,0.64609 0.64254,0.6521 0.64255,0.6599 0.64255,0.66544 0.64258,0.67329 0.64255,0.68157 0.64255,0.68893 0.64258,0.69723 0.64255,0.70367 0.64252,0.71425 0.64255,0.72165 0.64254,0.7322 0.64258,0.74234 0.64255,0.75111 0.64255,0.76262 0.64254,0.77366 0.64255,0.78427 0.64257,0.79623 0.64255,0.8096 0.64254,0.82156 0.64258,0.83676 0.64255,0.84963 0.64254,0.86625 0.64253,0.88188 0.64256,0.89893 0.64257,0.91595 0.64254,0.93761 0.64255,0.95653 0.64255,0.97766 0.64259,1.0016 0.64254,1.0279 0.64255,1.05456 0.64254,1.08406 0.64257,1.11673 0.64254,1.15177 0.64255,1.18999 0.64254,1.23368 0.64255,1.28166 0.64256,1.33549 0.64255,1.39766 0.64257,1.46858 0.64256,1.55104 0.64255,1.6514 0.64254,1.77067 0.64255,1.92449 0.64258,2.12531 0.64255,2.40251 0.64254,2.83586 0.64255,3.64453 0.64254,6.70142"
       style="display:inline;fill:none;stroke:#e60000;stroke-width:1;stroke-linecap:butt;stroke-linejoin:miter;stroke-miterlimit:10;stroke-dasharray:none;stroke-opacity:1" />
    <path
       id="path33"
       d="m 173.17786,171.12262 0.9672,0.42405 0.96726,0.42406 0.96729,0.42835 0.96726,0.42914 0.96729,0.43216 0.96729,0.4347 0.96725,0.43556 0.96727,0.43937 0.96731,0.44063 0.96727,0.44411 0.96725,0.44572 0.96727,0.44915 0.96731,0.45132 0.96727,0.45382 0.96722,0.45642 0.96727,0.45937 0.96725,0.46274 0.96727,0.46451 0.96725,0.46786 0.96727,0.47085 0.96731,0.47425 0.96727,0.47596 0.96728,0.48022 0.96727,0.48235 0.96728,0.48787 0.96729,0.48954 0.96726,0.49299 0.96726,0.49552 0.96732,0.50021 0.9672,0.50316 0.96726,0.50745 0.96729,0.51039 0.96726,0.51469 0.96726,0.5189 0.96726,0.52317 0.96728,0.52615 0.96724,0.53124 0.96731,0.53553 0.9673,0.53848 0.96722,0.54487 0.96732,0.54827 0.96729,0.55294 0.96726,0.55974 0.9672,0.56231 0.96727,0.56783 0.96731,0.57507 0.96726,0.57846 0.96726,0.58443 0.96729,0.5908 0.96726,0.59674 0.96726,0.60229 0.96726,0.6095 0.96727,0.61461 0.96731,0.62187 0.96726,0.62951 0.96726,0.63632 0.96732,0.64397 0.96726,0.64992 0.96723,0.6597 0.96726,0.66653 0.96726,0.67627 0.96731,0.68564 0.96727,0.69375 0.96726,0.70437 0.96726,0.71457 0.96726,0.72437 0.96729,0.73541 0.96726,0.74777 0.96726,0.75881 0.96731,0.77284 0.96727,0.78473 0.96725,0.80009 0.96724,0.81452 0.96728,0.83028 0.9673,0.84599 0.96725,0.866 0.96727,0.88347 0.96725,0.90299 0.96733,0.9251 0.96725,0.94938 0.96726,0.97402 0.96726,1.00126 0.96729,1.03144 0.96726,1.06379 0.96726,1.0991 0.96726,1.13946 0.96726,1.18376 0.96729,1.23349 0.96726,1.29091 0.96729,1.35641 0.96728,1.43257 0.96727,1.52527 0.96725,1.63543 0.96727,1.7775 0.96731,1.96298 0.96727,2.21901 0.96725,2.61925 0.96727,3.36617 0.96725,6.18957"
       style="display:inline;fill:none;stroke:#e60000;stroke-width:0.961785;stroke-linecap:butt;stroke-linejoin:miter;stroke-miterlimit:10;stroke-dasharray:none;stroke-opacity:1" />
    <path
       id="path21"
       d="m 113.3565,1.18652 -1.03048,5.75173 -1.03047,2.80218 -1.03049,2.15958 -1.03047,1.82393 -1.0305,1.60906 -1.03049,1.45437 -1.03046,1.33879 -1.03048,1.2464 -1.03049,1.17062 -1.03049,1.10765 -1.03048,1.05368 -1.03048,1.00729 -1.03048,0.96578 -1.03049,0.92943 -1.03047,0.89656 -1.03051,0.86753 -1.03045,0.84084 -1.03049,0.81664 -1.03049,0.79414 -1.03048,0.77338 -1.03049,0.75435 -1.03049,0.73705 -1.03045,0.72044 -1.03051,0.70418 -1.03047,0.69033 -1.03049,0.67649 -1.03048,0.66404 -1.03048,0.65123 -1.03048,0.64014 -1.03049,0.62909 -1.03049,0.61836 -1.03048,0.60869 -1.03046,0.59932 -1.03049,0.59032 -1.0305,0.58167 -1.03047,0.57372 -1.03049,0.56543 -1.03048,0.55814 -1.03047,0.55089 -1.0305,0.54327 -1.03046,0.5367 -1.03051,0.53047 -1.03047,0.52425 -1.03047,0.51799 -1.03049,0.51248 -1.03048,0.50659 -1.03049,0.50104 -1.03047,0.49553 -1.03048,0.49102 -1.0305,0.48548 -1.03048,0.48098 -1.03048,0.47614 -1.03048,0.47165 -1.03048,0.46747 -1.03048,0.463 -1.03049,0.45849 -1.03049,0.45502 -1.03047,0.45019 -1.03049,0.44675 -1.03047,0.4429 -1.0305,0.43947 -1.03047,0.436 -1.03049,0.43219 -1.03049,0.42873 -1.03047,0.42563 -1.03048,0.42215 -1.03049,0.4194 -1.03048,0.41628 -1.03048,0.41247 -1.537906,0.459789 -2.105061,0.356851 h -7.140876"
       style="display:inline;fill:none;stroke:#000000;stroke-width:0.75;stroke-linecap:butt;stroke-linejoin:miter;stroke-miterlimit:10;stroke-dasharray:none;stroke-opacity:1"
       transform="matrix(1.3333333,0,0,-1.3333333,57.701333,255.11067)" />
    <path
       id="path34"
       d="m 113.3565,1.18652 -1.03048,5.75173 -1.03047,2.80218 -1.03049,2.15958 -1.03047,1.82393 -1.0305,1.60906 -1.03049,1.45437 -1.03046,1.33879 -1.03048,1.2464 -1.03049,1.17062 -1.03049,1.10765 -1.03048,1.05368 -1.03048,1.00729 -1.03048,0.96578 -1.03049,0.92943 -1.03047,0.89656 -1.03051,0.86753 -1.03045,0.84084 -1.03049,0.81664 -1.03049,0.79414 -1.03048,0.77338 -1.03049,0.75435 -1.03049,0.73705 -1.03045,0.72044 -1.03051,0.70418 -1.03047,0.69033 -1.03049,0.67649 -1.311901,0.551472 -2.3813,0.594945 -73.8024814,0.168853"
       style="display:inline;fill:none;stroke:#000000;stroke-width:0.75;stroke-linecap:butt;stroke-linejoin:miter;stroke-miterlimit:10;stroke-dasharray:none;stroke-opacity:1"
       transform="matrix(1.3333333,0,0,-1.3333333,57.701333,255.11067)" />
    <ellipse
       style="fill:none;fill-opacity:1;stroke:#ff0000;stroke-width:0.747294;stroke-dasharray:none;stroke-dashoffset:0;stroke-opacity:1"
       id="path35"
       cx="173.43028"
       cy="171.1292"
       rx="1.6263528"
       ry="1.6263527" />
    <ellipse
       style="fill:none;fill-opacity:1;stroke:#009900;stroke-width:0.747294;stroke-dasharray:none;stroke-dashoffset:0;stroke-opacity:1"
       id="path35-07"
       cx="254.09984"
       cy="179.7541"
       rx="1.6263528"
       ry="1.6263527" />
    <ellipse
       style="fill:none;fill-opacity:1;stroke:#ff5500;stroke-width:0.747294;stroke-dasharray:none;stroke-dashoffset:0;stroke-opacity:1"
       id="path35-0"
       cx="115.76463"
       cy="164.44479"
       rx="1.6263528"
       ry="1.6263527" />
    <ellipse
       style="fill:none;fill-opacity:1;stroke:#ff5500;stroke-width:0.747294;stroke-dasharray:none;stroke-dashoffset:0;stroke-opacity:1"
       id="path35-0-6"
       cx="135.65465"
       cy="182.32751"
       rx="1.6263528"
       ry="1.6263527" />
    <ellipse
       style="fill:none;fill-opacity:1;stroke:#ff0000;stroke-width:0.747294;stroke-dasharray:none;stroke-dashoffset:0;stroke-opacity:1"
       id="path35-4"
       cx="205.66739"
       cy="164.54608"
       rx="1.6263528"
       ry="1.6263527" />
    <ellipse
       style="fill:none;fill-opacity:1;stroke:#000000;stroke-width:0.747294;stroke-dasharray:none;stroke-dashoffset:0;stroke-opacity:1"
       id="path35-0-1"
       cx="100.03059"
       cy="178.22624"
       rx="1.6263528"
       ry="1.6263527" />
    <ellipse
       style="fill:none;fill-opacity:1;stroke:#000000;stroke-width:0.747294;stroke-dasharray:none;stroke-dashoffset:0;stroke-opacity:1"
       id="path35-0-1-6"
       cx="70.079407"
       cy="206.72351"
       rx="1.6263528"
       ry="1.6263527" />
    <path
       style="fill:none;fill-opacity:1;stroke:#009900;stroke-width:1;stroke-dasharray:none;stroke-dashoffset:0;stroke-opacity:1"
       d="m 254.25435,179.80916 h 60.7869"
       id="path36" />
    <path
       style="fill:none;fill-opacity:1;stroke:#000000;stroke-width:1;stroke-linecap:butt;stroke-linejoin:miter;stroke-dasharray:none;stroke-dashoffset:0;stroke-opacity:1;marker-start:url(#ArrowWide);marker-end:url(#marker46)"
       d="m 269.57133,84.404703 h 28.44296"
       id="path37" />
    <rect
       style="fill:#ffffff;fill-opacity:1;stroke:#000000;stroke-width:1;stroke-linecap:butt;stroke-linejoin:miter;stroke-dasharray:none;stroke-dashoffset:0;stroke-opacity:1"
       id="rect46"
       width="5.3065224"
       height="26.957134"
       x="207.71376"
       y="40.825306" />
    <text
       xml:space="preserve"
       style="font-size:10.6667px;font-family:Sans;-inkscape-font-specification:Sans;text-align:start;writing-mode:lr-tb;direction:ltr;text-anchor:start;fill:#ffffff;fill-opacity:1;stroke:none;stroke-width:1;stroke-linecap:butt;stroke-linejoin:miter;stroke-dasharray:none;stroke-dashoffset:0;stroke-opacity:1"
       x="157.28532"
       y="53.77322"
       id="text47"><tspan
         id="tspan47"
         x="157.28532"
         y="53.77322"
         style="font-size:10.6667px;fill:#000000;fill-opacity:1">stop line</tspan></text>
    <text
       xml:space="preserve"
       style="font-size:10.6667px;font-family:Sans;-inkscape-font-specification:Sans;text-align:start;writing-mode:lr-tb;direction:ltr;text-anchor:start;fill:#ffffff;fill-opacity:1;stroke:none;stroke-width:1;stroke-linecap:butt;stroke-linejoin:miter;stroke-dasharray:none;stroke-dashoffset:0;stroke-opacity:1"
       x="276.52887"
       y="104.99458"
       id="text47-4"><tspan
         id="tspan47-3"
         x="276.52887"
         y="104.99458"
         style="font-size:10.6667px;fill:#000000;fill-opacity:1">stop_distance_from_crosswalk_limit</tspan></text>
  </g>
</svg>
